PathFileType	4	(X/Y/Z)	/Users/visionmauri/1_5_1_f_1_Sports2D/1_5_1_f_1_Sports2D_m_person00.trc
DataRate	CameraRate	NumFrames	NumMarkers	Units	OrigDataRate	OrigDataStartFrame	OrigNumFrames
30.0	30.0	6	22	m	30.0	378	432
Frame#	Time	Hip			RHip			RKnee			RAnkle			RBigToe			RSmallToe			RHeel			LHip			LKnee			LAnkle			LBigToe			LSmallToe			LHeel			Neck			Head			Nose			RShoulder			RElbow			RWrist			LShoulder			LElbow			LWrist			
		X1	Y1	Z1	X2	Y2	Z2	X3	Y3	Z3	X4	Y4	Z4	X5	Y5	Z5	X6	Y6	Z6	X7	Y7	Z7	X8	Y8	Z8	X9	Y9	Z9	X10	Y10	Z10	X11	Y11	Z11	X12	Y12	Z12	X13	Y13	Z13	X14	Y14	Z14	X15	Y15	Z15	X16	Y16	Z16	X17	Y17	Z17	X18	Y18	Z18	X19	Y19	Z19	X20	Y20	Z20	X21	Y21	Z21	X22	Y22	Z22
378	12.6292343387471	0.6556187591698974	0.7345651666889088	0.0301	0.563539522228515	0.6554329652211237	0.0301	0.7247322724645804	0.26086682262761557	0.129	0.9145578048237246	-0.06555809325905633	0.023	0.9879848628901959	-0.22670125672521454	0.2179	0.9173054179474068	-0.23706568885557008	0.1804	0.9586241244522132	-0.09572042590326688	-0.0119	0.7742553831701612	0.752617957206845	0.0301	0.9166873233353959	0.40343005715810304	0.129	1.0911475740443357	0.01558696291721195	0.023	1.1482096760239648	-0.12405225730627592	0.2179	1.1997347119647315	-0.08464018130517477	0.1804	1.0899477201300383	-0.03930549814382177	-0.0119	0.4280038122844302	1.3346949246213944	0.0008	0.3722417609446452	1.566539402575527	0.0655	0.47130663673795536	1.3735352251094026	0.1076	0.2577512363779117	1.179009434274466	-0.01275	0.2830248411553004	0.8838850968192475	0.0702	0.28689864870269105	0.6248855709411002	0.1076	0.637141117923279	1.3590303656952198	-0.01275	0.80171141657264	1.1559128207258536	0.0702	0.8446226060379902	1.1051706114433355	0.1076
379	12.66264501160093	0.654743601162953	0.7282275889528301	0.0301	0.5610062335351281	0.6544214843234012	0.0301	0.7281609227528449	0.2576206731724644	0.129	0.9288212487554658	-0.10553407267378605	0.023	1.0029855957644234	-0.2623796250013657	0.2179	0.929194661821794	-0.27710352575844943	0.1804	0.9729942824681239	-0.14147227137897453	-0.0119	0.7746350533042182	0.749217581630421	0.0301	0.9196351301680675	0.3973974362707545	0.129	1.0916347650765885	0.01671828774218817	0.023	1.151338142543564	-0.12482813783572527	0.2179	1.2015111902545061	-0.08710172718730948	0.1804	1.0903138005646094	-0.04206787317708281	-0.0119	0.4243244153583004	1.3343987552274077	0.0008	0.36508460723500047	1.5683890599785721	0.0655	0.4688934675683514	1.3719796830598854	0.1076	0.25531161569060357	1.1774832035092033	-0.01275	0.28078984643408933	0.8832838686758969	0.0702	0.2869250070414733	0.6255917384141334	0.1076	0.6351109768522214	1.3619697895854705	-0.01275	0.801448810895863	1.1548537652260005	0.0702	0.8487919006811603	1.1003975865078972	0.1076
380	12.696055684454757	0.6553776188945879	0.7207909107482485	0.0301	0.5599923605358327	0.649008760340416	0.0301	0.7308314000014886	0.25406540626929597	0.129	0.940003761519453	-0.13859116323074483	0.023	1.0144663467502344	-0.2886839873824491	0.2179	0.9396304003668999	-0.3066843538321411	0.1804	0.9847176626675104	-0.17982868175451072	-0.0119	0.7758928822234101	0.7446885534302853	0.0301	0.9223931874839588	0.3891596449469099	0.129	1.0935941245803484	0.01798500470519129	0.023	1.153445895105091	-0.12991563987138638	0.2179	1.2032615876517947	-0.09175636755537823	0.1804	1.0943988912413016	-0.04604236314130444	-0.0119	0.42117433815977273	1.3333947030961026	0.0008	0.35880272121265905	1.5691677380975313	0.0655	0.46369058410218494	1.369717733942873	0.1076	0.2512032063577739	1.1752955282212108	-0.01275	0.2789043939160138	0.8818458903384137	0.0702	0.28753950552052426	0.6252729963670652	0.1076	0.6354155896103337	1.3625904630880716	-0.01275	0.804410740352516	1.1512085571153137	0.0702	0.8631746125721824	1.0830444129418417	0.1076
381	12.729466357308585	0.6556441992154137	0.7144689618136562	0.0301	0.5606082395310743	0.6386532282564806	0.0301	0.7338251719261	0.24642466439259667	0.129	0.9468673696321052	-0.16250334330104296	0.023	1.019924725703841	-0.2969269882316981	0.2179	0.9467318364368464	-0.3182930271715359	0.1804	0.9914799235704507	-0.20974366425442043	-0.0119	0.7764766720601203	0.7377885084912031	0.0301	0.9229871515312824	0.3826974199033673	0.129	1.0958323997222998	0.01803698319752347	0.023	1.1528987681451401	-0.13442717054519274	0.2179	1.2018841509631388	-0.0947683254275653	0.1804	1.1015467492147675	-0.04780066285877053	-0.0119	0.41760257426771746	1.3323818651406378	0.0008	0.35334417343991165	1.5672324545118144	0.0655	0.4580783456484473	1.3669931397009936	0.1076	0.24578580374197945	1.1724980266630944	-0.01275	0.27746514224495433	0.8800596430141345	0.0702	0.2886818886673346	0.6232888577081435	0.1076	0.6363689893940259	1.3614539954222689	-0.01275	0.8139565664536973	1.139703997344764	0.0702	0.8745790653496941	1.0706146770197016	0.1076
382	12.762877030162414	0.6546253961543509	0.7093601109514392	0.0301	0.56043763898147	0.6281672487808057	0.0301	0.7369887845740489	0.23792144293718265	0.129	0.9508821500841222	-0.17676293962075648	0.023	1.0215976144578887	-0.2958013466850708	0.2179	0.9516150340393745	-0.32032454182058295	0.1804	0.9949033697812507	-0.22954396181648173	-0.0119	0.7751636603873714	0.7303040899367083	0.0301	0.9222905054647367	0.37852432208246095	0.129	1.0972909127499384	0.016881886086161004	0.023	1.151502223425593	-0.13635693484727304	0.2179	1.1991882699303684	-0.09560068784472467	0.1804	1.1062943881911573	-0.04538816530385063	-0.0119	0.4127107522722021	1.331122054401726	0.0008	0.3479519368910517	1.5637425828919695	0.0655	0.4536503172557117	1.3637251023357895	0.1076	0.23968340292830886	1.1692224522532608	-0.01275	0.2753043512963042	0.8788664501667917	0.0702	0.28902143793675106	0.6211539463563316	0.1076	0.6358668151490646	1.3602491235021252	-0.01275	0.8240591343532696	1.1245671551383385	0.0702	0.8720645096045269	1.0746156172945085	0.1076
383	12.796287703016242	0.6533466672747698	0.7038825123704154	0.0301	0.5591747106156478	0.6208268961886252	0.0301	0.739942837791179	0.23162638266232669	0.129	0.954936372527849	-0.18537718204458262	0.023	1.0257774750021174	-0.30206491641589445	0.2179	0.9577072041986903	-0.32755101454556346	0.1804	0.9981849089533493	-0.2397959385627113	-0.0119	0.7738149778824682	0.7240370920968011	0.0301	0.9220935074375999	0.37324279305963065	0.129	1.097919588056427	0.015261855406084086	0.023	1.1520459544209054	-0.13798297755060526	0.2179	1.198590993959853	-0.09560086507097376	0.1804	1.1054997438443557	-0.03971633354649436	-0.0119	0.40735104040957915	1.3293110690496963	0.0008	0.3418063247391097	1.5600231166827503	0.0655	0.4485683116720551	1.3590565029165393	0.1076	0.2338439470652085	1.1659205307717564	-0.01275	0.2711581862227778	0.878743961421966	0.0702	0.287337370030713	0.6214983386808769	0.1076	0.6332073858957612	1.359760772385575	-0.01275	0.827043696816553	1.114877795124464	0.0702	0.8625822506970993	1.0860549043699275	0.1076
